# AST/ASF file generated using VICON BodyLanguage
# -----------------------------------------------
:version 1.10
:name VICON
:units
  mass 1.0
  length 0.45
  angle deg
:documentation
   .ast/.asf automatically generated from VICON data using
   VICON BodyBuilder and BodyLanguage model FoxedUp or BRILLIANT.MOD
:root
   order TX TY TZ RX RY RZ
   axis XYZ
   position 0 0 0  
   orientation 0 0 0 
:bonedata
  begin
     id 1 
     name lhipjoint
     direction 0.606768 -0.715223 0.346827 
     length 2.41543 
     axis 0 0 0  XYZ
  end
  begin
     id 2 
     name lfemur
     direction 0.34202 -0.939693 0  
     length 7.2778  
     axis 0 0 20  XYZ
    dof rx ry rz
    limits (-160.0 20.0)
           (-70.0 70.0)
           (-60.0 70.0)
  end
  begin
     id 3 
     name ltibia
     direction 0.34202 -0.939693 0   
     length 7.61811   
     axis 0 0 20   XYZ
    dof rx
    limits (-10.0 170.0)
  end
  begin
     id 4 
     name lfoot
     direction 0.0823924 -0.226371 0.97055   
     length 2.33618   
     axis -90 7.62852e-016 20   XYZ
    dof rx rz
    limits (-45.0 90.0)
           (-70.0 20.0)
  end
  begin
     id 5 
     name ltoes
     direction 1.53554e-011 -4.21934e-011 1   
     length 1.17015   
     axis -90 7.62852e-016 20   XYZ
    dof rx
    limits (-90.0 20.0)
  end
  begin
     id 6 
     name rhipjoint
     direction -0.6077 -0.714582 0.346516   
     length 2.4176  
     axis 0 0 0  XYZ 
  end
  begin
     id 7 
     name rfemur
     direction -0.34202 -0.939693 0   
     length 7.28127   
     axis 0 0 -20   XYZ
    dof rx ry rz
    limits (-160.0 20.0)
           (-70.0 70.0)
           (-70.0 60.0)
  end
  begin
     id 8 
     name rtibia
     direction -0.34202 -0.939693 0   
     length 7.77648   
     axis 0 0 -20   XYZ
    dof rx
    limits (-10.0 170.0)
 end
 begin
     id 9 
     name rfoot
     direction -0.0809463 -0.222398 0.97159   
     length 2.37533  
     axis -90 -7.62852e-016 -20   XYZ
    dof rx rz
    limits (-45.0 90.0)
           (-20.0 70.0)
  end
  begin
     id 10 
     name rtoes
     direction -1.53568e-011 -4.21714e-011 1   
     length 1.18972   
     axis -90 -7.62852e-016 -20   XYZ
    dof rx
    limits (-90.0 20.0)
  end
  begin
     id 11 
     name lowerback
     direction 0.010968 0.991932 -0.126297   
     length 2.21698   
     axis 0 0 0   XYZ
    dof rx ry rz
    limits (-20.0 45.0)
           (-30.0 30.0)
           (-30.0 30.0)
  end
  begin
     id 12 
     name upperback
     direction 0.0167007 0.997503 -0.0686276   
     length 2.22371   
     axis 0 0 0   XYZ
    dof rx ry rz
    limits (-20.0 45.0)
           (-30.0 30.0)
           (-30.0 30.0)
  end
  begin
     id 13 
     name thorax
     direction 0.0111721 0.999885 -0.0102878   
     length 2.25242   
     axis 0 0 0   XYZ
    dof rx ry rz
    limits (-20.0 45.0)
           (-30.0 30.0)
           (-30.0 30.0)
  end
  begin
     id 14 
     name lowerneck
     direction -0.0120265 0.990428 0.137508   
     length 1.57674   
     axis 0 0 0   XYZ
    dof rx ry rz
    limits (-20.0 45.0)
           (-30.0 30.0)
           (-30.0 30.0)
  end
  begin
     id 15 
     name upperneck
     direction 0.0175669 0.998907 0.0433089   
     length 1.5618   
     axis 0 0 0   XYZ
    dof rx ry rz
    limits (-20.0 45.0)
           (-30.0 30.0)
           (-30.0 30.0)
  end
  begin
     id 16
     name head
     direction 0.00754609 0.99997 0.00185367  
     length 1.60579  
     axis 0 0 0   XYZ
    dof rx ry rz
    limits (-20.0 45.0)
           (-30.0 30.0)
           (-30.0 30.0)
  end
  begin
     id 17 
     name lclavicle
     direction 0.885866 0.429166 -0.176231  
     length 3.44967  
     axis 0 0 0   XYZ
    dof ry rz
    limits (-20.0 10.0)
           (0.0 20.0)
  end
  begin
     id 18 
     name lhumerus
     direction 1 -4.48973e-011 -1.90255e-027   
     length 5.20607   
     axis 180 -30 -90   XYZ
    dof rx ry rz
    limits (-60.0 90.0)
           (-90.0 90.0)
           (-90.0 90.0)
  end
  begin
     id 19
     name lradius
     direction 1 -4.48956e-011 9.87925e-027   
     length 3.39961   
     axis 180 -30 -90   XYZ
    dof rx
    limits (-10.0 170.0)
  end
  begin
     id 20
     name lwrist
     direction 1 -4.48985e-011 1.73247e-026   
     length 1.6998   
     axis -9.60847e-015 90 90   XYZ
    dof ry
    limits (-180.0 0.0)
 end
  begin
     id 21 
     name lhand
     direction 1 -4.48798e-011 3.46119e-026   
     length 0.519693   
     axis -2.21073e-014 90 90   XYZ
    dof rx rz
    limits (-90.0 90.0)
           (-45.0 45.0)
  end
  begin
     id 22 
     name lfingers
     direction 1 -4.48938e-011 6.92797e-026   
     length 0.41899   
     axis -4.42155e-014 90 90   XYZ
    dof rx
    limits (0.0 90.0)
  end
  begin
     id 23
     name lthumb
     direction 0.707107 -6.34952e-011 0.707107   
     length 0.601588   
     axis -90 45 6.0103e-014   XYZ
    dof rx rz
    limits (-45.0 45.0)
           (-45.0 45.0)
  end
  begin
     id 24 
     name rclavicle
     direction -0.866736 0.456792 -0.200276   
     length 3.45032  
     axis 0 0 0   XYZ 
    dof ry rz
    limits (-10.0 20.0)
           (-20.0 0.0)
  end
  begin
     id 25 
     name rhumerus
     direction -1 -4.4897e-011 8.65094e-028  
     length 5.32214   
     axis 180 30 90   XYZ
    dof rx ry rz
    limits (-90.0 60.0)
           (-90.0 90.0)
           (-90.0 90.0)
  end
  begin
     id 26 
     name rradius
     direction -1 -4.48987e-011 1.08427e-026   
     length 3.51208   
     axis 180 30 90   XYZ
    dof rx
    limits (-10.0 170.0)
  end
  begin
     id 27 
     name rwrist
     direction -1 -4.48961e-011 1.73222e-026   
     length 1.75604   
     axis -9.60847e-015 -90 -90   XYZ
    dof ry
    limits (-180.0 0.0)
  end
  begin
     id 28
     name rhand
     direction -1 -4.48895e-011 3.46314e-026   
     length 0.586681   
     axis -2.21073e-014 -90 -90   XYZ
    dof rx rz
    limits (-90.0 90.0)
           (-45.0 45.0)
  end
  begin
     id 29
     name rfingers
     direction -1 -4.48968e-011 6.92916e-026   
     length 0.472997   
     axis -4.42155e-014 -90 -90   XYZ
    dof rx
    limits (0.0 90.0)
  end
  begin
     id 30
     name rthumb
     direction -0.707107 -6.34848e-011 0.707107   
     length 0.679133   
     axis -90 -45 -6.0103e-014   XYZ
    dof rx rz
    limits (-45.0 45.0)
           (-45.0 45.0)
  end
:hierarchy
  begin
    root lhipjoint rhipjoint lowerback
    lhipjoint lfemur
    lfemur ltibia
    ltibia lfoot
    lfoot ltoes
    rhipjoint rfemur
    rfemur rtibia
    rtibia rfoot
    rfoot rtoes
    lowerback upperback
    upperback thorax
    thorax lowerneck lclavicle rclavicle
    lowerneck upperneck
    upperneck head
    lclavicle lhumerus
    lhumerus lradius
    lradius lwrist
    lwrist lhand lthumb
    lhand lfingers
    rclavicle rhumerus
    rhumerus rradius
    rradius rwrist
    rwrist rhand rthumb
    rhand rfingers
  end

#!OML:ASF H:\Dans Jumps\Project 1\Capture day 1\Session 1\subject.ASF
:FULLY-SPECIFIED
:DEGREES
50
root 0.154881 17.5962 -14.3648 7.79242 -0.527485 -1.74243
lowerback 0.882019 -0.522089 0.567768
upperback 5.44403 -0.791586 1.90793
thorax 5.14865 -0.418242 1.62843
lowerneck -12.136 0.446143 -2.40141
upperneck 33.9536 1.10683 0.507377
head 13.439 0.237801 0.785803
rclavicle 1.49089e-015 1.19271e-014
rhumerus -19.403 -18.4156 -80.8114
rradius 23.2779
rwrist 32.0056
rhand -19.2644 -26.9757
rfingers 7.12502
rthumb 7.04998 -56.8383
lclavicle 1.49089e-015 1.19271e-014
lhumerus -16.7139 -0.244429 88.4501
lradius 17.5117
lwrist 2.23042
lhand -25.4473 -3.18239
lfingers 7.12502
lthumb 1.07956 26.7946
rfemur -17.0883 -3.15228 20.3544
rtibia 22.4798
rfoot -12.2404 -2.13668
rtoes 11.9541
lfemur -16.1018 6.87113 -17.9135
ltibia 20.7959
lfoot -10.2555 4.42157
ltoes 0.567662
51
root 0.156176 17.5959 -14.3662 7.79232 -0.540797 -1.75015
lowerback 0.891008 -0.5215 0.566124
upperback 5.44278 -0.790503 1.90585
thorax 5.14216 -0.41772 1.6273
lowerneck -12.1345 0.443756 -2.39838
upperneck 33.9489 1.104 0.50236
head 13.4367 0.236279 0.782804
rclavicle 5.06901e-015 -5.56597e-015
rhumerus -19.4059 -18.3797 -80.8148
rradius 23.2936
rwrist 31.9812
rhand -19.2623 -26.9688
rfingers 7.12502
rthumb 7.05196 -56.8313
lclavicle 5.06901e-015 -5.56597e-015
lhumerus -16.7306 -0.216182 88.4399
lradius 17.506
lwrist 2.20358
lhand -25.4574 -3.19172
lfingers 7.12502
lthumb 1.06983 26.7853
rfemur -17.0946 -3.14578 20.3577
rtibia 22.4793
rfoot -12.2344 -2.12761
rtoes 11.961
lfemur -16.1149 6.8649 -17.9092
ltibia 20.8173
lfoot -10.2596 4.43906
ltoes 0.584902
52
root 0.157437 17.5956 -14.3676 7.79373 -0.55318 -1.75629
lowerback 0.901852 -0.52173 0.564072
upperback 5.44114 -0.79043 1.90301
thorax 5.13423 -0.417696 1.62558
lowerneck -12.1347 0.443259 -2.39447
upperneck 33.9414 1.10441 0.495359
head 13.4336 0.236049 0.779329
rclavicle 9.93923e-016 9.14409e-015
rhumerus -19.4074 -18.3467 -80.8181
rradius 23.3055
rwrist 31.9601
rhand -19.2634 -26.9575
rfingers 7.12502
rthumb 7.05088 -56.8201
lclavicle 9.93923e-016 9.14409e-015
lhumerus -16.7447 -0.189631 88.4281
lradius 17.4982
lwrist 2.17881
lhand -25.4601 -3.20693
lfingers 7.12502
lthumb 1.06719 26.7701
rfemur -17.1049 -3.13952 20.3595
rtibia 22.4832
rfoot -12.2299 -2.11976
rtoes 11.9654
lfemur -16.1314 6.86058 -17.9071
ltibia 20.8404
lfoot -10.2633 4.45404
ltoes 0.595137
53
root 0.158718 17.5951 -14.3692 7.79674 -0.565409 -1.76205
lowerback 0.912859 -0.522041 0.563835
upperback 5.44058 -0.790487 1.89932
thorax 5.12729 -0.417636 1.62197
lowerneck -12.1403 0.443762 -2.3883
upperneck 33.933 1.10673 0.485831
head 13.4312 0.236604 0.77477
rclavicle -2.08724e-015 -7.55382e-015
rhumerus -19.4071 -18.3172 -80.821
rradius 23.3163
rwrist 31.9431
rhand -19.2596 -26.9466
rfingers 7.12502
rthumb 7.05456 -56.8091
lclavicle -2.08724e-015 -7.55382e-015
lhumerus -16.7536 -0.165442 88.4153
lradius 17.4896
lwrist 2.16042
lhand -25.4569 -3.23345
lfingers 7.12502
lthumb 1.07025 26.7436
rfemur -17.1201 -3.13393 20.3607
rtibia 22.4923
rfoot -12.2273 -2.11049
rtoes 11.9743
lfemur -16.1521 6.85812 -17.9061
ltibia 20.8663
lfoot -10.2675 4.46819
ltoes 0.606361
54
root 0.159979 17.5946 -14.3711 7.80157 -0.577676 -1.76586
lowerback 0.927503 -0.522553 0.562641
upperback 5.43868 -0.790662 1.89475
thorax 5.11687 -0.417646 1.618
lowerneck -12.146 0.445528 -2.38194
upperneck 33.9225 1.11105 0.475704
head 13.428 0.238 0.770216
rclavicle 1.00386e-014 -2.38542e-015
rhumerus -19.4095 -18.2882 -80.8234
rradius 23.3285
rwrist 31.9237
rhand -19.2512 -26.9428
rfingers 7.12502
rthumb 7.06268 -56.805
lclavicle 1.00386e-014 -2.38542e-015
lhumerus -16.7646 -0.149032 88.4025
lradius 17.4859
lwrist 2.15789
lhand -25.454 -3.27213
lfingers 7.12502
lthumb 1.07306 26.7049
rfemur -17.1412 -3.12756 20.3601
rtibia 22.5058
rfoot -12.2247 -2.10241
rtoes 11.9806
lfemur -16.178 6.85676 -17.9077
ltibia 20.8962
lfoot -10.2711 4.48203
ltoes 0.618387
55
root 0.161187 17.5941 -14.3732 7.8087 -0.592349 -1.77143
lowerback 0.943309 -0.522307 0.56283
upperback 5.4367 -0.789859 1.89078
thorax 5.10568 -0.417124 1.61391
lowerneck -12.1517 0.448755 -2.37611
upperneck 33.9084 1.11747 0.465994
head 13.4231 0.240346 0.766201
rclavicle -1.05356e-014 4.77083e-015
rhumerus -19.4138 -18.2623 -80.8246
rradius 23.3428
rwrist 31.9035
rhand -19.2403 -26.9378
rfingers 7.12502
rthumb 7.07319 -56.7996
lclavicle -1.05356e-014 4.77083e-015
lhumerus -16.7777 -0.141992 88.3908
lradius 17.4878
lwrist 2.1719
lhand -25.4536 -3.32022
lfingers 7.12502
lthumb 1.07346 26.6568
rfemur -17.1685 -3.11711 20.3613
rtibia 22.5233
rfoot -12.2221 -2.09482
rtoes 11.9854
lfemur -16.2098 6.85941 -17.9078
ltibia 20.9309
lfoot -10.2755 4.49593
ltoes 0.626806
56
root 0.162383 17.5934 -14.3755 7.81678 -0.606041 -1.77658
lowerback 0.962614 -0.522741 0.562567
upperback 5.43365 -0.789899 1.88751
thorax 5.0914 -0.417053 1.61081
lowerneck -12.1618 0.453667 -2.36797
upperneck 33.8973 1.12695 0.453247
head 13.4205 0.243869 0.761083
rclavicle -9.0447e-015 -2.0276e-014
rhumerus -19.4224 -18.2354 -80.8233
rradius 23.3595
rwrist 31.8785
rhand -19.2306 -26.9319
rfingers 7.12502
rthumb 7.08255 -56.7934
lclavicle -9.0447e-015 -2.0276e-014
lhumerus -16.7973 -0.139729 88.3807
lradius 17.4977
lwrist 2.19688
lhand -25.4584 -3.36552
lfingers 7.12502
lthumb 1.06885 26.6115
rfemur -17.2001 -3.10791 20.3625
rtibia 22.5446
rfoot -12.2191 -2.08735
rtoes 11.9829
lfemur -16.2466 6.86414 -17.9088
ltibia 20.971
lfoot -10.281 4.50755
ltoes 0.627363
57
root 0.163521 17.5926 -14.3778 7.82298 -0.620896 -1.78171
lowerback 0.984533 -0.522411 0.561827
upperback 5.43268 -0.788917 1.88447
thorax 5.07782 -0.416509 1.60828
lowerneck -12.1736 0.458287 -2.36071
upperneck 33.8846 1.13608 0.44109
head 13.4175 0.24723 0.756301
rclavicle 7.05686e-015 8.74653e-015
rhumerus -19.4331 -18.2072 -80.821
rradius 23.3796
rwrist 31.8459
rhand -19.2204 -26.9277
rfingers 7.12502
rthumb 7.09243 -56.7888
lclavicle 7.05686e-015 8.74653e-015
lhumerus -16.8207 -0.139643 88.371
lradius 17.5148
lwrist 2.22777
lhand -25.4627 -3.40195
lfingers 7.12502
lthumb 1.06466 26.5751
rfemur -17.2319 -3.09815 20.3638
rtibia 22.5696
rfoot -12.2178 -2.07906
rtoes 11.9781
lfemur -16.2838 6.87202 -17.9096
ltibia 21.0157
lfoot -10.2891 4.51751
ltoes 0.626416
